<?xml version="1.0"?>
<svg width="525" height="525" xmlns="http://www.w3.org/2000/svg" xmlns:svg="http://www.w3.org/2000/svg" clip-rule="evenodd" fill-rule="evenodd" version="1.1">
	<g class="layer">
		<title>Layer 1</title>
		<g id="svg_3">
			<path d="m251.5,55.5c24.15,1.65 39.98,13.98 47.5,37c3.99,28.38 -7.18,47.71 -33.5,58c-1.98,0.5 -3.98,1 -6,1.5c11.33,0.5 22.66,0.67 34,0.5c9.67,9.33 19.33,18.67 29,28c-13.49,1 -27.16,1.33 -41,1c-10.18,-0.33 -20.18,0.01 -30,1c-0.17,45.67 0,91.33 0.5,137c9.7,9.54 19.2,19.2 28.5,29c0.33,13.84 0,27.51 -1,41c-18.97,-19.46 -38.13,-38.8 -57.5,-58c-0.33,-56 -0.67,-112 -1,-168c-25.47,-24.47 -50.64,-49.31 -75.5,-74.5c7.75,-7.13 16.41,-12.46 26,-16c26.51,25.34 52.51,51.17 78,77.5c0.06,0.54 0.39,0.88 1,1c1,-31.99 1.33,-63.99 1,-96z" fill="#030303" id="svg_4"/>
		</g>
		<g id="svg_5">
			<path d="m251.5,55.5c0.33,32.01 0,64.01 -1,96c-0.61,-0.12 -0.94,-0.46 -1,-1c0.67,-31.67 1.33,-63.33 2,-95z" fill="#bebebe" id="svg_6"/>
		</g>
		<g id="svg_7">
			<path d="m124.5,109.5c22.63,22.13 45.13,44.47 67.5,67c0.67,42.33 0.67,84.67 0,127c-33.33,-34 -66.67,-68 -100,-102c-0.61,-12.65 1.05,-24.98 5,-37c22,22 44,44 66,66c0.67,-13.67 0.67,-27.33 0,-41c-18.54,-18.21 -36.71,-36.71 -54.5,-55.5c4.72,-8.6 10.05,-16.77 16,-24.5z" fill="#020202" id="svg_8"/>
		</g>
		<g id="svg_9">
			<path d="m265.5,150.5c9.33,0.67 18.67,1.33 28,2c-11.34,0.17 -22.67,0 -34,-0.5c2.02,-0.5 4.02,-1 6,-1.5z" fill="#bbbbbb" id="svg_10"/>
		</g>
		<g id="svg_11">
			<path d="m322.5,180.5c0.54,0.06 0.88,0.39 1,1c-13.65,1 -27.32,1.33 -41,1c-0.67,0 -1,-0.33 -1,-1c13.84,0.33 27.51,0 41,-1z" fill="#808080" id="svg_12"/>
		</g>
		<g id="svg_13">
			<path d="m282.5,183.5c9.5,8.66 18.5,17.83 27,27.5c14.67,0.33 29.33,0.67 44,1c9.2,9.03 18.2,18.2 27,27.5c-13.49,1 -27.16,1.33 -41,1c-9.63,-9.13 -19.13,-18.46 -28.5,-28c-0.5,37.33 -0.67,74.67 -0.5,112c-10,0 -20,0 -30,0c0,-3 0,-6 0,-9c0.67,-44 1.33,-88 2,-132z" fill="#020202" id="svg_14"/>
		</g>
		<g id="svg_15">
			<path d="m251.5,182.5c9.82,-0.99 19.82,-1.33 30,-1c0,0.67 0.33,1 1,1c0,0.33 0,0.67 0,1c-0.67,44 -1.33,88 -2,132c0,-44.33 0,-88.67 0,-133c-9.67,0 -19.33,0 -29,0z" fill="#484848" id="svg_16"/>
		</g>
		<g id="svg_17">
			<path d="m340.5,242.5c9.63,9.13 19.13,18.46 28.5,28c0.5,18 0.67,36 0.5,54c-9.67,0 -19.33,0 -29,0c0,-27.33 0,-54.67 0,-82z" fill="#000000" id="svg_18"/>
		</g>
		<g id="svg_19">
			<path d="m93.5,244.5c62.33,62.67 124.67,125.33 187,188c0.33,13.51 0,26.84 -1,40c-62.67,-62 -125,-124.33 -187,-187c-0.33,-13.84 0,-27.51 1,-41z" fill="#040404" id="svg_20"/>
		</g>
		<g id="svg_21">
			<path d="m93.5,244.5c-1,13.49 -1.33,27.16 -1,41c-1.33,-13.84 -1.33,-27.84 0,-42c0.61,0.12 0.94,0.46 1,1z" fill="#7f7f7f" id="svg_22"/>
		</g>
		<g id="svg_23">
			<path d="m380.5,239.5c0.54,0.06 0.88,0.39 1,1c-13.83,0.67 -27.49,1.33 -41,2c0,27.33 0,54.67 0,82c-0.33,0 -0.67,0 -1,0c0,-28 0,-56 0,-84c13.84,0.33 27.51,0 41,-1z" fill="#3f3f3f" id="svg_24"/>
		</g>
		<g id="svg_25">
			<path d="m369.5,329.5c0,-1.67 0,-3.33 0,-5c9.67,0 19.33,0 29,0c0,-12.33 0,-24.67 0,-37c10.34,-0.17 20.67,0 31,0.5c11.86,12.2 24.03,24.03 36.5,35.5c-1.97,31.47 -18.81,48.14 -50.5,50c-26.09,-3.43 -41.42,-18.09 -46,-44z" fill="#020202" id="svg_26"/>
		</g>
		<g id="svg_27">
			<path d="m339.5,324.5c0.33,0 0.67,0 1,0c9.67,0 19.33,0 29,0c0,1.67 0,3.33 0,5c-0.93,-1.07 -1.27,-2.4 -1,-4c-9.85,0.33 -19.51,-0.01 -29,-1z" fill="#bebebe" id="svg_28"/>
		</g>
		<g id="svg_29">
			<path d="m280.5,348.5c1.33,13.84 1.33,27.84 0,42c-0.61,-0.12 -0.94,-0.46 -1,-1c1,-13.49 1.33,-27.16 1,-41z" fill="#7f7f7f" id="svg_30"/>
		</g>
		<g id="svg_31">
			<path d="m280.5,432.5c1.33,13.51 1.33,27.17 0,41c-0.61,-0.12 -0.94,-0.46 -1,-1c1,-13.16 1.33,-26.49 1,-40z" fill="#7e7e7e" id="svg_32"/>
		</g>
	</g>
</svg>